<svg width="64" height="64" viewBox="0 0 64 64" fill="none" xmlns="http://www.w3.org/2000/svg">
  <rect width="64" height="64" rx="18" fill="#F8F7FB"/>
  <rect x="6" y="6" width="52" height="52" rx="14" fill="#FFFFFF" stroke="#B0ACCD" stroke-width="2"/>
  <path d="M22 39.5C24.3 42 27.8 43.5 32 43.5C38.2 43.5 42.3 40.5 42.3 35.9C42.3 31.2 38.5 29.7 32.5 28.4C28.8 27.6 27 26.9 27 24.8C27 22.8 28.8 21.6 31.7 21.6C34.7 21.6 37.1 22.7 39 24.6L41.8 21.4C39.3 19 36 17.8 31.9 17.8C26.4 17.8 22.6 20.7 22.6 25C22.6 29.5 26.1 31.2 31.8 32.4C35.8 33.3 37.8 33.9 37.8 36.2C37.8 38.4 35.8 39.7 32.2 39.7C29.1 39.7 26.6 38.7 24.7 36.6L22 39.5Z" fill="#5F57AC"/>
</svg>
